<?xml version="1.0" encoding="UTF-8" standalone="no"?>
<!DOCTYPE svg PUBLIC "-//W3C//DTD SVG 1.1//EN"
 "http://www.w3.org/Graphics/SVG/1.1/DTD/svg11.dtd">
<!-- Generated by graphviz version 2.40.1 (20161225.0304)
 -->
<!-- Title: %3 Pages: 1 -->
<svg width="104pt" height="188pt"
 viewBox="0.00 0.00 104.19 188.00" xmlns="http://www.w3.org/2000/svg" xmlns:xlink="http://www.w3.org/1999/xlink">
<g id="graph0" class="graph" transform="scale(1 1) rotate(0) translate(4 184)">
<title>%3</title>
<polygon fill="#ffffff" stroke="transparent" points="-4,4 -4,-184 100.1915,-184 100.1915,4 -4,4"/>
<!-- 140077076716624 -->
<g id="node1" class="node">
<title>140077076716624</title>
<ellipse fill="none" stroke="#000000" cx="48.0957" cy="-162" rx="32.4942" ry="18"/>
<text text-anchor="middle" x="48.0957" y="-158.3" font-family="Times,serif" font-size="14.00" fill="#000000">loader</text>
</g>
<!-- 140077076750008 -->
<g id="node2" class="node">
<title>140077076750008</title>
<ellipse fill="none" stroke="#000000" cx="48.0957" cy="-90" rx="48.1917" ry="18"/>
<text text-anchor="middle" x="48.0957" y="-86.3" font-family="Times,serif" font-size="14.00" fill="#000000">Transform</text>
</g>
<!-- 140077076716624&#45;&gt;140077076750008 -->
<g id="edge1" class="edge">
<title>140077076716624&#45;&gt;140077076750008</title>
<path fill="none" stroke="#000000" d="M48.0957,-143.8314C48.0957,-136.131 48.0957,-126.9743 48.0957,-118.4166"/>
<polygon fill="#000000" stroke="#000000" points="51.5958,-118.4132 48.0957,-108.4133 44.5958,-118.4133 51.5958,-118.4132"/>
</g>
<!-- 140077076751416 -->
<g id="node3" class="node">
<title>140077076751416</title>
<ellipse fill="none" stroke="#000000" cx="48.0957" cy="-18" rx="27" ry="18"/>
<text text-anchor="middle" x="48.0957" y="-14.3" font-family="Times,serif" font-size="14.00" fill="#000000">save</text>
</g>
<!-- 140077076750008&#45;&gt;140077076751416 -->
<g id="edge2" class="edge">
<title>140077076750008&#45;&gt;140077076751416</title>
<path fill="none" stroke="#000000" d="M48.0957,-71.8314C48.0957,-64.131 48.0957,-54.9743 48.0957,-46.4166"/>
<polygon fill="#000000" stroke="#000000" points="51.5958,-46.4132 48.0957,-36.4133 44.5958,-46.4133 51.5958,-46.4132"/>
</g>
</g>
</svg>
