<?xml version="1.0" encoding="UTF-8" standalone="no"?>
<!DOCTYPE svg PUBLIC "-//W3C//DTD SVG 1.1//EN"
 "http://www.w3.org/Graphics/SVG/1.1/DTD/svg11.dtd">
<!-- Generated by graphviz version 2.40.1 (20161225.0304)
 -->
<!-- Title: %3 Pages: 1 -->
<svg width="218pt" height="332pt"
 viewBox="0.00 0.00 217.54 332.00" xmlns="http://www.w3.org/2000/svg" xmlns:xlink="http://www.w3.org/1999/xlink">
<g id="graph0" class="graph" transform="scale(1 1) rotate(0) translate(4 328)">
<title>%3</title>
<polygon fill="#ffffff" stroke="transparent" points="-4,4 -4,-328 213.5415,-328 213.5415,4 -4,4"/>
<!-- 4612877112 -->
<g id="node1" class="node">
<title>4612877112</title>
<ellipse fill="none" stroke="#000000" cx="57.7457" cy="-306" rx="38.9931" ry="18"/>
<text text-anchor="middle" x="57.7457" y="-302.3" font-family="Times,serif" font-size="14.00" fill="#000000">source1</text>
</g>
<!-- 4613419584 -->
<g id="node2" class="node">
<title>4613419584</title>
<ellipse fill="none" stroke="#000000" cx="105.7457" cy="-234" rx="37.8943" ry="18"/>
<text text-anchor="middle" x="105.7457" y="-230.3" font-family="Times,serif" font-size="14.00" fill="#000000">batcher</text>
</g>
<!-- 4612877112&#45;&gt;4613419584 -->
<g id="edge1" class="edge">
<title>4612877112&#45;&gt;4613419584</title>
<path fill="none" stroke="#000000" d="M69.3651,-288.5708C75.1432,-279.9038 82.2395,-269.2592 88.6259,-259.6796"/>
<polygon fill="#000000" stroke="#000000" points="91.5984,-261.5307 94.2332,-251.2687 85.774,-257.6477 91.5984,-261.5307"/>
</g>
<!-- 4613420312 -->
<g id="node4" class="node">
<title>4613420312</title>
<ellipse fill="none" stroke="#000000" cx="105.7457" cy="-162" rx="27" ry="18"/>
<text text-anchor="middle" x="105.7457" y="-158.3" font-family="Times,serif" font-size="14.00" fill="#000000">sum</text>
</g>
<!-- 4613419584&#45;&gt;4613420312 -->
<g id="edge3" class="edge">
<title>4613419584&#45;&gt;4613420312</title>
<path fill="none" stroke="#000000" d="M105.7457,-215.8314C105.7457,-208.131 105.7457,-198.9743 105.7457,-190.4166"/>
<polygon fill="#000000" stroke="#000000" points="109.2458,-190.4132 105.7457,-180.4133 102.2458,-190.4133 109.2458,-190.4132"/>
</g>
<!-- 4612878120 -->
<g id="node3" class="node">
<title>4612878120</title>
<ellipse fill="none" stroke="#000000" cx="153.7457" cy="-306" rx="38.9931" ry="18"/>
<text text-anchor="middle" x="153.7457" y="-302.3" font-family="Times,serif" font-size="14.00" fill="#000000">source2</text>
</g>
<!-- 4612878120&#45;&gt;4613419584 -->
<g id="edge2" class="edge">
<title>4612878120&#45;&gt;4613419584</title>
<path fill="none" stroke="#000000" d="M142.1262,-288.5708C136.3482,-279.9038 129.2518,-269.2592 122.8654,-259.6796"/>
<polygon fill="#000000" stroke="#000000" points="125.7174,-257.6477 117.2581,-251.2687 119.893,-261.5307 125.7174,-257.6477"/>
</g>
<!-- 4613421040 -->
<g id="node5" class="node">
<title>4613421040</title>
<ellipse fill="none" stroke="#000000" cx="105.7457" cy="-90" rx="34.394" ry="18"/>
<text text-anchor="middle" x="105.7457" y="-86.3" font-family="Times,serif" font-size="14.00" fill="#000000">switch</text>
</g>
<!-- 4613420312&#45;&gt;4613421040 -->
<g id="edge4" class="edge">
<title>4613420312&#45;&gt;4613421040</title>
<path fill="none" stroke="#000000" d="M105.7457,-143.8314C105.7457,-136.131 105.7457,-126.9743 105.7457,-118.4166"/>
<polygon fill="#000000" stroke="#000000" points="109.2458,-118.4132 105.7457,-108.4133 102.2458,-118.4133 109.2458,-118.4132"/>
</g>
<!-- 4613421768 -->
<g id="node6" class="node">
<title>4613421768</title>
<ellipse fill="none" stroke="#000000" cx="48.7457" cy="-18" rx="48.9926" ry="18"/>
<text text-anchor="middle" x="48.7457" y="-14.3" font-family="Times,serif" font-size="14.00" fill="#000000">print_gt_1</text>
</g>
<!-- 4613421040&#45;&gt;4613421768 -->
<g id="edge5" class="edge">
<title>4613421040&#45;&gt;4613421768</title>
<path fill="none" stroke="#000000" d="M92.5255,-73.3008C85.5369,-64.4731 76.808,-53.4471 68.9872,-43.5682"/>
<polygon fill="#000000" stroke="#000000" points="71.6407,-41.2812 62.6894,-35.6132 66.1523,-45.6261 71.6407,-41.2812"/>
</g>
<!-- 4613422608 -->
<g id="node7" class="node">
<title>4613422608</title>
<ellipse fill="none" stroke="#000000" cx="162.7457" cy="-18" rx="46.5926" ry="18"/>
<text text-anchor="middle" x="162.7457" y="-14.3" font-family="Times,serif" font-size="14.00" fill="#000000">print_lt_1</text>
</g>
<!-- 4613421040&#45;&gt;4613422608 -->
<g id="edge6" class="edge">
<title>4613421040&#45;&gt;4613422608</title>
<path fill="none" stroke="#000000" d="M118.9659,-73.3008C125.9545,-64.4731 134.6834,-53.4471 142.5042,-43.5682"/>
<polygon fill="#000000" stroke="#000000" points="145.339,-45.6261 148.8019,-35.6132 139.8507,-41.2812 145.339,-45.6261"/>
</g>
</g>
</svg>
