<?xml version="1.0" encoding="UTF-8" standalone="no"?>
<!DOCTYPE svg PUBLIC "-//W3C//DTD SVG 1.1//EN"
 "http://www.w3.org/Graphics/SVG/1.1/DTD/svg11.dtd">
<!-- Generated by graphviz version 2.40.1 (20161225.0304)
 -->
<!-- Title: %3 Pages: 1 -->
<svg width="176pt" height="188pt"
 viewBox="0.00 0.00 176.39 188.00" xmlns="http://www.w3.org/2000/svg" xmlns:xlink="http://www.w3.org/1999/xlink">
<g id="graph0" class="graph" transform="scale(1 1) rotate(0) translate(4 184)">
<title>%3</title>
<polygon fill="#ffffff" stroke="transparent" points="-4,4 -4,-184 172.3933,-184 172.3933,4 -4,4"/>
<!-- 4493280592 -->
<g id="node1" class="node">
<title>4493280592</title>
<ellipse fill="none" stroke="#000000" cx="83.6967" cy="-162" rx="27" ry="18"/>
<text text-anchor="middle" x="83.6967" y="-158.3" font-family="Times,serif" font-size="14.00" fill="#000000">load</text>
</g>
<!-- 4493281936 -->
<g id="node2" class="node">
<title>4493281936</title>
<ellipse fill="none" stroke="#000000" cx="37.6967" cy="-90" rx="37.8943" ry="18"/>
<text text-anchor="middle" x="37.6967" y="-86.3" font-family="Times,serif" font-size="14.00" fill="#000000">trans_0</text>
</g>
<!-- 4493280592&#45;&gt;4493281936 -->
<g id="edge1" class="edge">
<title>4493280592&#45;&gt;4493281936</title>
<path fill="none" stroke="#000000" d="M73.0277,-145.3008C67.5006,-136.6496 60.6246,-125.8873 54.4115,-116.1623"/>
<polygon fill="#000000" stroke="#000000" points="57.2829,-114.1558 48.9495,-107.6132 51.384,-117.9245 57.2829,-114.1558"/>
</g>
<!-- 4493282664 -->
<g id="node3" class="node">
<title>4493282664</title>
<ellipse fill="none" stroke="#000000" cx="130.6967" cy="-90" rx="37.8943" ry="18"/>
<text text-anchor="middle" x="130.6967" y="-86.3" font-family="Times,serif" font-size="14.00" fill="#000000">trans_1</text>
</g>
<!-- 4493280592&#45;&gt;4493282664 -->
<g id="edge2" class="edge">
<title>4493280592&#45;&gt;4493282664</title>
<path fill="none" stroke="#000000" d="M94.5975,-145.3008C100.2448,-136.6496 107.2702,-125.8873 113.6185,-116.1623"/>
<polygon fill="#000000" stroke="#000000" points="116.6637,-117.9002 119.1992,-107.6132 110.8021,-114.0738 116.6637,-117.9002"/>
</g>
<!-- 4493304552 -->
<g id="node4" class="node">
<title>4493304552</title>
<ellipse fill="none" stroke="#000000" cx="83.6967" cy="-18" rx="27" ry="18"/>
<text text-anchor="middle" x="83.6967" y="-14.3" font-family="Times,serif" font-size="14.00" fill="#000000">save</text>
</g>
<!-- 4493281936&#45;&gt;4493304552 -->
<g id="edge3" class="edge">
<title>4493281936&#45;&gt;4493304552</title>
<path fill="none" stroke="#000000" d="M48.832,-72.5708C54.4507,-63.7763 61.3702,-52.9457 67.5598,-43.2577"/>
<polygon fill="#000000" stroke="#000000" points="70.5461,-45.0843 72.9806,-34.7729 64.6472,-41.3155 70.5461,-45.0843"/>
</g>
<!-- 4493282664&#45;&gt;4493304552 -->
<g id="edge4" class="edge">
<title>4493282664&#45;&gt;4493304552</title>
<path fill="none" stroke="#000000" d="M119.3193,-72.5708C113.5784,-63.7763 106.5084,-52.9457 100.1843,-43.2577"/>
<polygon fill="#000000" stroke="#000000" points="103.0427,-41.2335 94.6456,-34.7729 97.1811,-45.0599 103.0427,-41.2335"/>
</g>
</g>
</svg>
