<?xml version="1.0" encoding="UTF-8" standalone="no"?>
<!DOCTYPE svg PUBLIC "-//W3C//DTD SVG 1.1//EN"
 "http://www.w3.org/Graphics/SVG/1.1/DTD/svg11.dtd">
<!-- Generated by graphviz version 2.40.1 (20161225.0304)
 -->
<!-- Title: %3 Pages: 1 -->
<svg width="254pt" height="188pt"
 viewBox="0.00 0.00 254.39 188.00" xmlns="http://www.w3.org/2000/svg" xmlns:xlink="http://www.w3.org/1999/xlink">
<g id="graph0" class="graph" transform="scale(1 1) rotate(0) translate(4 184)">
<title>%3</title>
<polygon fill="#ffffff" stroke="transparent" points="-4,4 -4,-184 250.3899,-184 250.3899,4 -4,4"/>
<!-- 140077076878616 -->
<g id="node1" class="node">
<title>140077076878616</title>
<ellipse fill="none" stroke="#000000" cx="123.1949" cy="-162" rx="32.4942" ry="18"/>
<text text-anchor="middle" x="123.1949" y="-158.3" font-family="Times,serif" font-size="14.00" fill="#000000">loader</text>
</g>
<!-- 140077076879848 -->
<g id="node2" class="node">
<title>140077076879848</title>
<ellipse fill="none" stroke="#000000" cx="57.1949" cy="-90" rx="57.3905" ry="18"/>
<text text-anchor="middle" x="57.1949" y="-86.3" font-family="Times,serif" font-size="14.00" fill="#000000">Transform_0</text>
</g>
<!-- 140077076878616&#45;&gt;140077076879848 -->
<g id="edge1" class="edge">
<title>140077076878616&#45;&gt;140077076879848</title>
<path fill="none" stroke="#000000" d="M108.2185,-145.6621C99.9143,-136.6029 89.4135,-125.1476 80.0999,-114.9873"/>
<polygon fill="#000000" stroke="#000000" points="82.6025,-112.5377 73.2652,-107.5312 77.4424,-117.2678 82.6025,-112.5377"/>
</g>
<!-- 140077076879904 -->
<g id="node3" class="node">
<title>140077076879904</title>
<ellipse fill="none" stroke="#000000" cx="189.1949" cy="-90" rx="57.3905" ry="18"/>
<text text-anchor="middle" x="189.1949" y="-86.3" font-family="Times,serif" font-size="14.00" fill="#000000">Transform_1</text>
</g>
<!-- 140077076878616&#45;&gt;140077076879904 -->
<g id="edge2" class="edge">
<title>140077076878616&#45;&gt;140077076879904</title>
<path fill="none" stroke="#000000" d="M138.1713,-145.6621C146.4756,-136.6029 156.9763,-125.1476 166.2899,-114.9873"/>
<polygon fill="#000000" stroke="#000000" points="168.9475,-117.2678 173.1247,-107.5312 163.7874,-112.5377 168.9475,-117.2678"/>
</g>
<!-- 140077076881248 -->
<g id="node4" class="node">
<title>140077076881248</title>
<ellipse fill="none" stroke="#000000" cx="123.1949" cy="-18" rx="27" ry="18"/>
<text text-anchor="middle" x="123.1949" y="-14.3" font-family="Times,serif" font-size="14.00" fill="#000000">save</text>
</g>
<!-- 140077076879848&#45;&gt;140077076881248 -->
<g id="edge3" class="edge">
<title>140077076879848&#45;&gt;140077076881248</title>
<path fill="none" stroke="#000000" d="M73.1717,-72.5708C81.8055,-63.1521 92.5803,-51.3978 101.9164,-41.213"/>
<polygon fill="#000000" stroke="#000000" points="104.5388,-43.5318 108.716,-33.7951 99.3787,-38.8017 104.5388,-43.5318"/>
</g>
<!-- 140077076879904&#45;&gt;140077076881248 -->
<g id="edge4" class="edge">
<title>140077076879904&#45;&gt;140077076881248</title>
<path fill="none" stroke="#000000" d="M173.2182,-72.5708C164.5843,-63.1521 153.8096,-51.3978 144.4735,-41.213"/>
<polygon fill="#000000" stroke="#000000" points="147.0111,-38.8017 137.6738,-33.7951 141.851,-43.5318 147.0111,-38.8017"/>
</g>
</g>
</svg>
