<?xml version="1.0" encoding="UTF-8" standalone="no"?>
<!DOCTYPE svg PUBLIC "-//W3C//DTD SVG 1.1//EN"
 "http://www.w3.org/Graphics/SVG/1.1/DTD/svg11.dtd">
<!-- Generated by graphviz version 2.40.1 (20161225.0304)
 -->
<!-- Title: %3 Pages: 1 -->
<svg width="260pt" height="332pt"
 viewBox="0.00 0.00 259.99 332.00" xmlns="http://www.w3.org/2000/svg" xmlns:xlink="http://www.w3.org/1999/xlink">
<g id="graph0" class="graph" transform="scale(1 1) rotate(0) translate(4 328)">
<title>%3</title>
<polygon fill="#ffffff" stroke="transparent" points="-4,4 -4,-328 255.9896,-328 255.9896,4 -4,4"/>
<!-- 4357662984 -->
<g id="node1" class="node">
<title>4357662984</title>
<ellipse fill="none" stroke="#000000" cx="125.4948" cy="-306" rx="33.2948" ry="18"/>
<text text-anchor="middle" x="125.4948" y="-302.3" font-family="Times,serif" font-size="14.00" fill="#000000">loader</text>
</g>
<!-- 4357663712 -->
<g id="node2" class="node">
<title>4357663712</title>
<polygon fill="none" stroke="#000000" points="159.4948,-252 91.4948,-252 91.4948,-216 159.4948,-216 159.4948,-252"/>
<text text-anchor="middle" x="125.4948" y="-230.3" font-family="Times,serif" font-size="14.00" fill="#000000">stream_0</text>
</g>
<!-- 4357662984&#45;&gt;4357663712 -->
<g id="edge1" class="edge">
<title>4357662984&#45;&gt;4357663712</title>
<path fill="none" stroke="#000000" d="M125.4948,-287.8314C125.4948,-280.131 125.4948,-270.9743 125.4948,-262.4166"/>
<polygon fill="#000000" stroke="#000000" points="128.9949,-262.4132 125.4948,-252.4133 121.9949,-262.4133 128.9949,-262.4132"/>
</g>
<!-- 4357664328 -->
<g id="node3" class="node">
<title>4357664328</title>
<ellipse fill="none" stroke="#000000" cx="58.4948" cy="-162" rx="58.4896" ry="18"/>
<text text-anchor="middle" x="58.4948" y="-158.3" font-family="Times,serif" font-size="14.00" fill="#000000">Transform_0</text>
</g>
<!-- 4357663712&#45;&gt;4357664328 -->
<g id="edge2" class="edge">
<title>4357663712&#45;&gt;4357664328</title>
<path fill="none" stroke="#000000" d="M108.5879,-215.8314C100.3901,-207.0218 90.4187,-196.3063 81.5373,-186.7621"/>
<polygon fill="#000000" stroke="#000000" points="84.0775,-184.3541 74.703,-179.4177 78.953,-189.1227 84.0775,-184.3541"/>
</g>
<!-- 4357664384 -->
<g id="node4" class="node">
<title>4357664384</title>
<ellipse fill="none" stroke="#000000" cx="193.4948" cy="-162" rx="58.4896" ry="18"/>
<text text-anchor="middle" x="193.4948" y="-158.3" font-family="Times,serif" font-size="14.00" fill="#000000">Transform_1</text>
</g>
<!-- 4357663712&#45;&gt;4357664384 -->
<g id="edge3" class="edge">
<title>4357663712&#45;&gt;4357664384</title>
<path fill="none" stroke="#000000" d="M142.6541,-215.8314C150.9742,-207.0218 161.0944,-196.3063 170.1084,-186.7621"/>
<polygon fill="#000000" stroke="#000000" points="172.723,-189.0911 177.0447,-179.4177 167.6339,-184.2847 172.723,-189.0911"/>
</g>
<!-- 4357681560 -->
<g id="node5" class="node">
<title>4357681560</title>
<polygon fill="none" stroke="#000000" points="159.4948,-108 91.4948,-108 91.4948,-72 159.4948,-72 159.4948,-108"/>
<text text-anchor="middle" x="125.4948" y="-86.3" font-family="Times,serif" font-size="14.00" fill="#000000">stream_1</text>
</g>
<!-- 4357664328&#45;&gt;4357681560 -->
<g id="edge4" class="edge">
<title>4357664328&#45;&gt;4357681560</title>
<path fill="none" stroke="#000000" d="M74.7136,-144.5708C82.8423,-135.8355 92.8403,-125.0914 101.809,-115.4534"/>
<polygon fill="#000000" stroke="#000000" points="104.4756,-117.7256 108.7256,-108.0206 99.3511,-112.957 104.4756,-117.7256"/>
</g>
<!-- 4357664384&#45;&gt;4357681560 -->
<g id="edge6" class="edge">
<title>4357664384&#45;&gt;4357681560</title>
<path fill="none" stroke="#000000" d="M177.0339,-144.5708C168.7839,-135.8355 158.6367,-125.0914 149.5341,-115.4534"/>
<polygon fill="#000000" stroke="#000000" points="151.9251,-112.8876 142.5143,-108.0206 146.836,-117.6939 151.9251,-112.8876"/>
</g>
<!-- 4357682176 -->
<g id="node6" class="node">
<title>4357682176</title>
<ellipse fill="none" stroke="#000000" cx="125.4948" cy="-18" rx="27" ry="18"/>
<text text-anchor="middle" x="125.4948" y="-14.3" font-family="Times,serif" font-size="14.00" fill="#000000">save</text>
</g>
<!-- 4357681560&#45;&gt;4357682176 -->
<g id="edge5" class="edge">
<title>4357681560&#45;&gt;4357682176</title>
<path fill="none" stroke="#000000" d="M125.4948,-71.8314C125.4948,-64.131 125.4948,-54.9743 125.4948,-46.4166"/>
<polygon fill="#000000" stroke="#000000" points="128.9949,-46.4132 125.4948,-36.4133 121.9949,-46.4133 128.9949,-46.4132"/>
</g>
</g>
</svg>
