<?xml version="1.0" encoding="UTF-8" standalone="no"?>
<!DOCTYPE svg PUBLIC "-//W3C//DTD SVG 1.1//EN"
 "http://www.w3.org/Graphics/SVG/1.1/DTD/svg11.dtd">
<!-- Generated by graphviz version 2.40.1 (20161225.0304)
 -->
<!-- Title: %3 Pages: 1 -->
<svg width="65pt" height="188pt"
 viewBox="0.00 0.00 65.19 188.00" xmlns="http://www.w3.org/2000/svg" xmlns:xlink="http://www.w3.org/1999/xlink">
<g id="graph0" class="graph" transform="scale(1 1) rotate(0) translate(4 184)">
<title>%3</title>
<polygon fill="#ffffff" stroke="transparent" points="-4,4 -4,-184 61.1949,-184 61.1949,4 -4,4"/>
<!-- 4493112880 -->
<g id="node1" class="node">
<title>4493112880</title>
<ellipse fill="none" stroke="#000000" cx="28.5975" cy="-162" rx="27" ry="18"/>
<text text-anchor="middle" x="28.5975" y="-158.3" font-family="Times,serif" font-size="14.00" fill="#000000">load</text>
</g>
<!-- 4493138072 -->
<g id="node2" class="node">
<title>4493138072</title>
<ellipse fill="none" stroke="#000000" cx="28.5975" cy="-90" rx="28.6953" ry="18"/>
<text text-anchor="middle" x="28.5975" y="-86.3" font-family="Times,serif" font-size="14.00" fill="#000000">trans</text>
</g>
<!-- 4493112880&#45;&gt;4493138072 -->
<g id="edge1" class="edge">
<title>4493112880&#45;&gt;4493138072</title>
<path fill="none" stroke="#000000" d="M28.5975,-143.8314C28.5975,-136.131 28.5975,-126.9743 28.5975,-118.4166"/>
<polygon fill="#000000" stroke="#000000" points="32.0976,-118.4132 28.5975,-108.4133 25.0976,-118.4133 32.0976,-118.4132"/>
</g>
<!-- 4493139472 -->
<g id="node3" class="node">
<title>4493139472</title>
<ellipse fill="none" stroke="#000000" cx="28.5975" cy="-18" rx="27" ry="18"/>
<text text-anchor="middle" x="28.5975" y="-14.3" font-family="Times,serif" font-size="14.00" fill="#000000">save</text>
</g>
<!-- 4493138072&#45;&gt;4493139472 -->
<g id="edge2" class="edge">
<title>4493138072&#45;&gt;4493139472</title>
<path fill="none" stroke="#000000" d="M28.5975,-71.8314C28.5975,-64.131 28.5975,-54.9743 28.5975,-46.4166"/>
<polygon fill="#000000" stroke="#000000" points="32.0976,-46.4132 28.5975,-36.4133 25.0976,-46.4133 32.0976,-46.4132"/>
</g>
</g>
</svg>
