<?xml version="1.0" encoding="UTF-8" standalone="no"?>
<!DOCTYPE svg PUBLIC "-//W3C//DTD SVG 1.1//EN"
 "http://www.w3.org/Graphics/SVG/1.1/DTD/svg11.dtd">
<!-- Generated by graphviz version 2.40.1 (20161225.0304)
 -->
<!-- Title: %3 Pages: 1 -->
<svg width="254pt" height="332pt"
 viewBox="0.00 0.00 254.39 332.00" xmlns="http://www.w3.org/2000/svg" xmlns:xlink="http://www.w3.org/1999/xlink">
<g id="graph0" class="graph" transform="scale(1 1) rotate(0) translate(4 328)">
<title>%3</title>
<polygon fill="#ffffff" stroke="transparent" points="-4,4 -4,-328 250.3899,-328 250.3899,4 -4,4"/>
<!-- 140077076878616 -->
<g id="node1" class="node">
<title>140077076878616</title>
<ellipse fill="none" stroke="#000000" cx="123.1949" cy="-306" rx="32.4942" ry="18"/>
<text text-anchor="middle" x="123.1949" y="-302.3" font-family="Times,serif" font-size="14.00" fill="#000000">loader</text>
</g>
<!-- 140077076879344 -->
<g id="node2" class="node">
<title>140077076879344</title>
<polygon fill="none" stroke="#000000" points="156.6949,-252 89.6949,-252 89.6949,-216 156.6949,-216 156.6949,-252"/>
<text text-anchor="middle" x="123.1949" y="-230.3" font-family="Times,serif" font-size="14.00" fill="#000000">stream_0</text>
</g>
<!-- 140077076878616&#45;&gt;140077076879344 -->
<g id="edge1" class="edge">
<title>140077076878616&#45;&gt;140077076879344</title>
<path fill="none" stroke="#000000" d="M123.1949,-287.8314C123.1949,-280.131 123.1949,-270.9743 123.1949,-262.4166"/>
<polygon fill="#000000" stroke="#000000" points="126.695,-262.4132 123.1949,-252.4133 119.695,-262.4133 126.695,-262.4132"/>
</g>
<!-- 140077076879848 -->
<g id="node3" class="node">
<title>140077076879848</title>
<ellipse fill="none" stroke="#000000" cx="57.1949" cy="-162" rx="57.3905" ry="18"/>
<text text-anchor="middle" x="57.1949" y="-158.3" font-family="Times,serif" font-size="14.00" fill="#000000">Transform_0</text>
</g>
<!-- 140077076879344&#45;&gt;140077076879848 -->
<g id="edge2" class="edge">
<title>140077076879344&#45;&gt;140077076879848</title>
<path fill="none" stroke="#000000" d="M106.5403,-215.8314C98.5448,-207.109 88.8367,-196.5183 80.1537,-187.0459"/>
<polygon fill="#000000" stroke="#000000" points="82.4985,-184.4242 73.1612,-179.4177 77.3384,-189.1543 82.4985,-184.4242"/>
</g>
<!-- 140077076879904 -->
<g id="node4" class="node">
<title>140077076879904</title>
<ellipse fill="none" stroke="#000000" cx="189.1949" cy="-162" rx="57.3905" ry="18"/>
<text text-anchor="middle" x="189.1949" y="-158.3" font-family="Times,serif" font-size="14.00" fill="#000000">Transform_1</text>
</g>
<!-- 140077076879344&#45;&gt;140077076879904 -->
<g id="edge3" class="edge">
<title>140077076879344&#45;&gt;140077076879904</title>
<path fill="none" stroke="#000000" d="M139.8495,-215.8314C147.845,-207.109 157.5532,-196.5183 166.2362,-187.0459"/>
<polygon fill="#000000" stroke="#000000" points="169.0515,-189.1543 173.2287,-179.4177 163.8914,-184.4242 169.0515,-189.1543"/>
</g>
<!-- 140077076880632 -->
<g id="node5" class="node">
<title>140077076880632</title>
<polygon fill="none" stroke="#000000" points="156.6949,-108 89.6949,-108 89.6949,-72 156.6949,-72 156.6949,-108"/>
<text text-anchor="middle" x="123.1949" y="-86.3" font-family="Times,serif" font-size="14.00" fill="#000000">stream_1</text>
</g>
<!-- 140077076879848&#45;&gt;140077076880632 -->
<g id="edge4" class="edge">
<title>140077076879848&#45;&gt;140077076880632</title>
<path fill="none" stroke="#000000" d="M73.1717,-144.5708C81.179,-135.8355 91.0278,-125.0914 99.8627,-115.4534"/>
<polygon fill="#000000" stroke="#000000" points="102.4988,-117.7572 106.676,-108.0206 97.3387,-113.0271 102.4988,-117.7572"/>
</g>
<!-- 140077076879904&#45;&gt;140077076880632 -->
<g id="edge6" class="edge">
<title>140077076879904&#45;&gt;140077076880632</title>
<path fill="none" stroke="#000000" d="M173.2182,-144.5708C165.2108,-135.8355 155.362,-125.0914 146.5272,-115.4534"/>
<polygon fill="#000000" stroke="#000000" points="149.0511,-113.0271 139.7138,-108.0206 143.891,-117.7572 149.0511,-113.0271"/>
</g>
<!-- 140077076881248 -->
<g id="node6" class="node">
<title>140077076881248</title>
<ellipse fill="none" stroke="#000000" cx="123.1949" cy="-18" rx="27" ry="18"/>
<text text-anchor="middle" x="123.1949" y="-14.3" font-family="Times,serif" font-size="14.00" fill="#000000">save</text>
</g>
<!-- 140077076880632&#45;&gt;140077076881248 -->
<g id="edge5" class="edge">
<title>140077076880632&#45;&gt;140077076881248</title>
<path fill="none" stroke="#000000" d="M123.1949,-71.8314C123.1949,-64.131 123.1949,-54.9743 123.1949,-46.4166"/>
<polygon fill="#000000" stroke="#000000" points="126.695,-46.4132 123.1949,-36.4133 119.695,-46.4133 126.695,-46.4132"/>
</g>
</g>
</svg>
