<?xml version="1.0" encoding="UTF-8" standalone="no"?>
<!DOCTYPE svg PUBLIC "-//W3C//DTD SVG 1.1//EN"
 "http://www.w3.org/Graphics/SVG/1.1/DTD/svg11.dtd">
<!-- Generated by graphviz version 2.40.1 (20161225.0304)
 -->
<!-- Title: %3 Pages: 1 -->
<svg width="260pt" height="188pt"
 viewBox="0.00 0.00 259.99 188.00" xmlns="http://www.w3.org/2000/svg" xmlns:xlink="http://www.w3.org/1999/xlink">
<g id="graph0" class="graph" transform="scale(1 1) rotate(0) translate(4 184)">
<title>%3</title>
<polygon fill="#ffffff" stroke="transparent" points="-4,4 -4,-184 255.9896,-184 255.9896,4 -4,4"/>
<!-- 4357662984 -->
<g id="node1" class="node">
<title>4357662984</title>
<ellipse fill="none" stroke="#000000" cx="125.4948" cy="-162" rx="33.2948" ry="18"/>
<text text-anchor="middle" x="125.4948" y="-158.3" font-family="Times,serif" font-size="14.00" fill="#000000">loader</text>
</g>
<!-- 4357664328 -->
<g id="node2" class="node">
<title>4357664328</title>
<ellipse fill="none" stroke="#000000" cx="58.4948" cy="-90" rx="58.4896" ry="18"/>
<text text-anchor="middle" x="58.4948" y="-86.3" font-family="Times,serif" font-size="14.00" fill="#000000">Transform_0</text>
</g>
<!-- 4357662984&#45;&gt;4357664328 -->
<g id="edge1" class="edge">
<title>4357662984&#45;&gt;4357664328</title>
<path fill="none" stroke="#000000" d="M110.2915,-145.6621C101.8614,-136.6029 91.2016,-125.1476 81.7468,-114.9873"/>
<polygon fill="#000000" stroke="#000000" points="84.1831,-112.4676 74.8085,-107.5312 79.0586,-117.2362 84.1831,-112.4676"/>
</g>
<!-- 4357664384 -->
<g id="node3" class="node">
<title>4357664384</title>
<ellipse fill="none" stroke="#000000" cx="193.4948" cy="-90" rx="58.4896" ry="18"/>
<text text-anchor="middle" x="193.4948" y="-86.3" font-family="Times,serif" font-size="14.00" fill="#000000">Transform_1</text>
</g>
<!-- 4357662984&#45;&gt;4357664384 -->
<g id="edge2" class="edge">
<title>4357662984&#45;&gt;4357664384</title>
<path fill="none" stroke="#000000" d="M140.9251,-145.6621C149.4809,-136.6029 160.2999,-125.1476 169.8957,-114.9873"/>
<polygon fill="#000000" stroke="#000000" points="172.6159,-117.2045 176.9376,-107.5312 167.5268,-112.3981 172.6159,-117.2045"/>
</g>
<!-- 4357682176 -->
<g id="node4" class="node">
<title>4357682176</title>
<ellipse fill="none" stroke="#000000" cx="125.4948" cy="-18" rx="27" ry="18"/>
<text text-anchor="middle" x="125.4948" y="-14.3" font-family="Times,serif" font-size="14.00" fill="#000000">save</text>
</g>
<!-- 4357664328&#45;&gt;4357682176 -->
<g id="edge3" class="edge">
<title>4357664328&#45;&gt;4357682176</title>
<path fill="none" stroke="#000000" d="M74.7136,-72.5708C83.6018,-63.0194 94.7248,-51.0662 104.2934,-40.7836"/>
<polygon fill="#000000" stroke="#000000" points="106.9948,-43.0184 111.2448,-33.3134 101.8703,-38.2498 106.9948,-43.0184"/>
</g>
<!-- 4357664384&#45;&gt;4357682176 -->
<g id="edge4" class="edge">
<title>4357664384&#45;&gt;4357682176</title>
<path fill="none" stroke="#000000" d="M177.0339,-72.5708C168.0131,-63.0194 156.724,-51.0662 147.0126,-40.7836"/>
<polygon fill="#000000" stroke="#000000" points="149.3683,-38.1804 139.9575,-33.3134 144.2792,-42.9868 149.3683,-38.1804"/>
</g>
</g>
</svg>
