<?xml version="1.0" encoding="UTF-8" standalone="no"?>
<!DOCTYPE svg PUBLIC "-//W3C//DTD SVG 1.1//EN"
 "http://www.w3.org/Graphics/SVG/1.1/DTD/svg11.dtd">
<!-- Generated by graphviz version 2.40.1 (20161225.0304)
 -->
<!-- Title: %3 Pages: 1 -->
<svg width="212pt" height="620pt"
 viewBox="0.00 0.00 211.94 620.00" xmlns="http://www.w3.org/2000/svg" xmlns:xlink="http://www.w3.org/1999/xlink">
<g id="graph0" class="graph" transform="scale(1 1) rotate(0) translate(4 616)">
<title>%3</title>
<polygon fill="#ffffff" stroke="transparent" points="-4,4 -4,-616 207.9418,-616 207.9418,4 -4,4"/>
<!-- 139638726435784 -->
<g id="node1" class="node">
<title>139638726435784</title>
<ellipse fill="none" stroke="#000000" cx="55.4458" cy="-594" rx="38.1938" ry="18"/>
<text text-anchor="middle" x="55.4458" y="-590.3" font-family="Times,serif" font-size="14.00" fill="#000000">source1</text>
</g>
<!-- 139638987785944 -->
<g id="node2" class="node">
<title>139638987785944</title>
<polygon fill="none" stroke="#000000" points="129.4458,-540 75.4458,-540 75.4458,-504 129.4458,-504 129.4458,-540"/>
<text text-anchor="middle" x="102.4458" y="-518.3" font-family="Times,serif" font-size="14.00" fill="#000000">stream</text>
</g>
<!-- 139638726435784&#45;&gt;139638987785944 -->
<g id="edge1" class="edge">
<title>139638726435784&#45;&gt;139638987785944</title>
<path fill="none" stroke="#000000" d="M66.8232,-576.5708C72.2996,-568.1815 78.9855,-557.9392 85.0796,-548.6035"/>
<polygon fill="#000000" stroke="#000000" points="88.1469,-550.3076 90.6823,-540.0206 82.2852,-546.4812 88.1469,-550.3076"/>
</g>
<!-- 139638726437352 -->
<g id="node3" class="node">
<title>139638726437352</title>
<ellipse fill="none" stroke="#000000" cx="102.4458" cy="-450" rx="36.2938" ry="18"/>
<text text-anchor="middle" x="102.4458" y="-446.3" font-family="Times,serif" font-size="14.00" fill="#000000">batcher</text>
</g>
<!-- 139638987785944&#45;&gt;139638726437352 -->
<g id="edge2" class="edge">
<title>139638987785944&#45;&gt;139638726437352</title>
<path fill="none" stroke="#000000" d="M102.4458,-503.8314C102.4458,-496.131 102.4458,-486.9743 102.4458,-478.4166"/>
<polygon fill="#000000" stroke="#000000" points="105.9459,-478.4132 102.4458,-468.4133 98.9459,-478.4133 105.9459,-478.4132"/>
</g>
<!-- 139638738824496 -->
<g id="node5" class="node">
<title>139638738824496</title>
<polygon fill="none" stroke="#000000" points="129.4458,-396 75.4458,-396 75.4458,-360 129.4458,-360 129.4458,-396"/>
<text text-anchor="middle" x="102.4458" y="-374.3" font-family="Times,serif" font-size="14.00" fill="#000000">stream</text>
</g>
<!-- 139638726437352&#45;&gt;139638738824496 -->
<g id="edge4" class="edge">
<title>139638726437352&#45;&gt;139638738824496</title>
<path fill="none" stroke="#000000" d="M102.4458,-431.8314C102.4458,-424.131 102.4458,-414.9743 102.4458,-406.4166"/>
<polygon fill="#000000" stroke="#000000" points="105.9459,-406.4132 102.4458,-396.4133 98.9459,-406.4133 105.9459,-406.4132"/>
</g>
<!-- 139638726436624 -->
<g id="node4" class="node">
<title>139638726436624</title>
<ellipse fill="none" stroke="#000000" cx="150.4458" cy="-594" rx="38.1938" ry="18"/>
<text text-anchor="middle" x="150.4458" y="-590.3" font-family="Times,serif" font-size="14.00" fill="#000000">source2</text>
</g>
<!-- 139638726436624&#45;&gt;139638987785944 -->
<g id="edge3" class="edge">
<title>139638726436624&#45;&gt;139638987785944</title>
<path fill="none" stroke="#000000" d="M138.8263,-576.5708C133.2334,-568.1815 126.4053,-557.9392 120.1815,-548.6035"/>
<polygon fill="#000000" stroke="#000000" points="122.9187,-546.3996 114.4595,-540.0206 117.0944,-550.2826 122.9187,-546.3996"/>
</g>
<!-- 139638726438080 -->
<g id="node6" class="node">
<title>139638726438080</title>
<ellipse fill="none" stroke="#000000" cx="102.4458" cy="-306" rx="27" ry="18"/>
<text text-anchor="middle" x="102.4458" y="-302.3" font-family="Times,serif" font-size="14.00" fill="#000000">sum</text>
</g>
<!-- 139638738824496&#45;&gt;139638726438080 -->
<g id="edge5" class="edge">
<title>139638738824496&#45;&gt;139638726438080</title>
<path fill="none" stroke="#000000" d="M102.4458,-359.8314C102.4458,-352.131 102.4458,-342.9743 102.4458,-334.4166"/>
<polygon fill="#000000" stroke="#000000" points="105.9459,-334.4132 102.4458,-324.4133 98.9459,-334.4133 105.9459,-334.4132"/>
</g>
<!-- 139638738825112 -->
<g id="node7" class="node">
<title>139638738825112</title>
<polygon fill="none" stroke="#000000" points="129.4458,-252 75.4458,-252 75.4458,-216 129.4458,-216 129.4458,-252"/>
<text text-anchor="middle" x="102.4458" y="-230.3" font-family="Times,serif" font-size="14.00" fill="#000000">stream</text>
</g>
<!-- 139638726438080&#45;&gt;139638738825112 -->
<g id="edge6" class="edge">
<title>139638726438080&#45;&gt;139638738825112</title>
<path fill="none" stroke="#000000" d="M102.4458,-287.8314C102.4458,-280.131 102.4458,-270.9743 102.4458,-262.4166"/>
<polygon fill="#000000" stroke="#000000" points="105.9459,-262.4132 102.4458,-252.4133 98.9459,-262.4133 105.9459,-262.4132"/>
</g>
<!-- 139638726438808 -->
<g id="node8" class="node">
<title>139638726438808</title>
<ellipse fill="none" stroke="#000000" cx="102.4458" cy="-162" rx="33.5952" ry="18"/>
<text text-anchor="middle" x="102.4458" y="-158.3" font-family="Times,serif" font-size="14.00" fill="#000000">switch</text>
</g>
<!-- 139638738825112&#45;&gt;139638726438808 -->
<g id="edge7" class="edge">
<title>139638738825112&#45;&gt;139638726438808</title>
<path fill="none" stroke="#000000" d="M102.4458,-215.8314C102.4458,-208.131 102.4458,-198.9743 102.4458,-190.4166"/>
<polygon fill="#000000" stroke="#000000" points="105.9459,-190.4132 102.4458,-180.4133 98.9459,-190.4133 105.9459,-190.4132"/>
</g>
<!-- 139638726357568 -->
<g id="node9" class="node">
<title>139638726357568</title>
<polygon fill="none" stroke="#000000" points="93.4458,-108 39.4458,-108 39.4458,-72 93.4458,-72 93.4458,-108"/>
<text text-anchor="middle" x="66.4458" y="-86.3" font-family="Times,serif" font-size="14.00" fill="#000000">stream</text>
</g>
<!-- 139638726438808&#45;&gt;139638726357568 -->
<g id="edge8" class="edge">
<title>139638726438808&#45;&gt;139638726357568</title>
<path fill="none" stroke="#000000" d="M93.7312,-144.5708C89.623,-136.3544 84.6262,-126.3608 80.0368,-117.1821"/>
<polygon fill="#000000" stroke="#000000" points="83.0588,-115.3996 75.4561,-108.0206 76.7978,-118.5301 83.0588,-115.3996"/>
</g>
<!-- 139638726358184 -->
<g id="node11" class="node">
<title>139638726358184</title>
<polygon fill="none" stroke="#000000" points="175.4458,-108 121.4458,-108 121.4458,-72 175.4458,-72 175.4458,-108"/>
<text text-anchor="middle" x="148.4458" y="-86.3" font-family="Times,serif" font-size="14.00" fill="#000000">stream</text>
</g>
<!-- 139638726438808&#45;&gt;139638726358184 -->
<g id="edge10" class="edge">
<title>139638726438808&#45;&gt;139638726358184</title>
<path fill="none" stroke="#000000" d="M113.3471,-144.937C118.7027,-136.5544 125.2817,-126.2569 131.2906,-116.8516"/>
<polygon fill="#000000" stroke="#000000" points="134.3841,-118.5105 136.8185,-108.1992 128.4852,-114.7418 134.3841,-118.5105"/>
</g>
<!-- 139638726411096 -->
<g id="node10" class="node">
<title>139638726411096</title>
<ellipse fill="none" stroke="#000000" cx="47.4458" cy="-18" rx="47.3916" ry="18"/>
<text text-anchor="middle" x="47.4458" y="-14.3" font-family="Times,serif" font-size="14.00" fill="#000000">print_gt_1</text>
</g>
<!-- 139638726357568&#45;&gt;139638726411096 -->
<g id="edge9" class="edge">
<title>139638726357568&#45;&gt;139638726411096</title>
<path fill="none" stroke="#000000" d="M61.6513,-71.8314C59.5653,-63.9266 57.0744,-54.4872 54.7651,-45.7365"/>
<polygon fill="#000000" stroke="#000000" points="58.1087,-44.6894 52.1729,-35.9134 51.3404,-46.4755 58.1087,-44.6894"/>
</g>
<!-- 139638726411824 -->
<g id="node12" class="node">
<title>139638726411824</title>
<ellipse fill="none" stroke="#000000" cx="158.4458" cy="-18" rx="45.4919" ry="18"/>
<text text-anchor="middle" x="158.4458" y="-14.3" font-family="Times,serif" font-size="14.00" fill="#000000">print_lt_1</text>
</g>
<!-- 139638726358184&#45;&gt;139638726411824 -->
<g id="edge11" class="edge">
<title>139638726358184&#45;&gt;139638726411824</title>
<path fill="none" stroke="#000000" d="M150.9692,-71.8314C152.0387,-64.131 153.3105,-54.9743 154.499,-46.4166"/>
<polygon fill="#000000" stroke="#000000" points="157.9793,-46.7997 155.8884,-36.4133 151.0459,-45.8367 157.9793,-46.7997"/>
</g>
</g>
</svg>
