<?xml version="1.0" encoding="UTF-8" standalone="no"?>
<!DOCTYPE svg PUBLIC "-//W3C//DTD SVG 1.1//EN"
 "http://www.w3.org/Graphics/SVG/1.1/DTD/svg11.dtd">
<!-- Generated by graphviz version 2.40.1 (20161225.0304)
 -->
<!-- Title: %3 Pages: 1 -->
<svg width="176pt" height="332pt"
 viewBox="0.00 0.00 176.39 332.00" xmlns="http://www.w3.org/2000/svg" xmlns:xlink="http://www.w3.org/1999/xlink">
<g id="graph0" class="graph" transform="scale(1 1) rotate(0) translate(4 328)">
<title>%3</title>
<polygon fill="#ffffff" stroke="transparent" points="-4,4 -4,-328 172.3933,-328 172.3933,4 -4,4"/>
<!-- 4498781016 -->
<g id="node1" class="node">
<title>4498781016</title>
<ellipse fill="none" stroke="#000000" cx="83.6967" cy="-306" rx="27" ry="18"/>
<text text-anchor="middle" x="83.6967" y="-302.3" font-family="Times,serif" font-size="14.00" fill="#000000">load</text>
</g>
<!-- 4498781744 -->
<g id="node2" class="node">
<title>4498781744</title>
<polygon fill="none" stroke="#000000" points="117.6967,-252 49.6967,-252 49.6967,-216 117.6967,-216 117.6967,-252"/>
<text text-anchor="middle" x="83.6967" y="-230.3" font-family="Times,serif" font-size="14.00" fill="#000000">stream_0</text>
</g>
<!-- 4498781016&#45;&gt;4498781744 -->
<g id="edge1" class="edge">
<title>4498781016&#45;&gt;4498781744</title>
<path fill="none" stroke="#000000" d="M83.6967,-287.8314C83.6967,-280.131 83.6967,-270.9743 83.6967,-262.4166"/>
<polygon fill="#000000" stroke="#000000" points="87.1968,-262.4132 83.6967,-252.4133 80.1968,-262.4133 87.1968,-262.4132"/>
</g>
<!-- 4498782360 -->
<g id="node3" class="node">
<title>4498782360</title>
<ellipse fill="none" stroke="#000000" cx="37.6967" cy="-162" rx="37.8943" ry="18"/>
<text text-anchor="middle" x="37.6967" y="-158.3" font-family="Times,serif" font-size="14.00" fill="#000000">trans_0</text>
</g>
<!-- 4498781744&#45;&gt;4498782360 -->
<g id="edge2" class="edge">
<title>4498781744&#45;&gt;4498782360</title>
<path fill="none" stroke="#000000" d="M72.0889,-215.8314C66.6835,-207.3707 60.1549,-197.1521 54.2447,-187.9014"/>
<polygon fill="#000000" stroke="#000000" points="57.158,-185.9603 48.8246,-179.4177 51.2591,-189.7291 57.158,-185.9603"/>
</g>
<!-- 4498783088 -->
<g id="node4" class="node">
<title>4498783088</title>
<ellipse fill="none" stroke="#000000" cx="130.6967" cy="-162" rx="37.8943" ry="18"/>
<text text-anchor="middle" x="130.6967" y="-158.3" font-family="Times,serif" font-size="14.00" fill="#000000">trans_1</text>
</g>
<!-- 4498781744&#45;&gt;4498783088 -->
<g id="edge3" class="edge">
<title>4498781744&#45;&gt;4498783088</title>
<path fill="none" stroke="#000000" d="M95.5567,-215.8314C101.0797,-207.3707 107.7502,-197.1521 113.7888,-187.9014"/>
<polygon fill="#000000" stroke="#000000" points="116.7913,-189.7047 119.3268,-179.4177 110.9297,-185.8783 116.7913,-189.7047"/>
</g>
<!-- 4498783816 -->
<g id="node5" class="node">
<title>4498783816</title>
<polygon fill="none" stroke="#000000" points="117.6967,-108 49.6967,-108 49.6967,-72 117.6967,-72 117.6967,-108"/>
<text text-anchor="middle" x="83.6967" y="-86.3" font-family="Times,serif" font-size="14.00" fill="#000000">stream_1</text>
</g>
<!-- 4498782360&#45;&gt;4498783816 -->
<g id="edge4" class="edge">
<title>4498782360&#45;&gt;4498783816</title>
<path fill="none" stroke="#000000" d="M48.832,-144.5708C54.1918,-136.1815 60.7355,-125.9392 66.7,-116.6035"/>
<polygon fill="#000000" stroke="#000000" points="69.749,-118.3319 72.1835,-108.0206 63.8501,-114.5632 69.749,-118.3319"/>
</g>
<!-- 4498783088&#45;&gt;4498783816 -->
<g id="edge6" class="edge">
<title>4498783088&#45;&gt;4498783816</title>
<path fill="none" stroke="#000000" d="M119.3193,-144.5708C113.8429,-136.1815 107.157,-125.9392 101.0628,-116.6035"/>
<polygon fill="#000000" stroke="#000000" points="103.8572,-114.4812 95.4601,-108.0206 97.9955,-118.3076 103.8572,-114.4812"/>
</g>
<!-- 4498813168 -->
<g id="node6" class="node">
<title>4498813168</title>
<ellipse fill="none" stroke="#000000" cx="83.6967" cy="-18" rx="27" ry="18"/>
<text text-anchor="middle" x="83.6967" y="-14.3" font-family="Times,serif" font-size="14.00" fill="#000000">save</text>
</g>
<!-- 4498783816&#45;&gt;4498813168 -->
<g id="edge5" class="edge">
<title>4498783816&#45;&gt;4498813168</title>
<path fill="none" stroke="#000000" d="M83.6967,-71.8314C83.6967,-64.131 83.6967,-54.9743 83.6967,-46.4166"/>
<polygon fill="#000000" stroke="#000000" points="87.1968,-46.4132 83.6967,-36.4133 80.1968,-46.4133 87.1968,-46.4132"/>
</g>
</g>
</svg>
