<?xml version="1.0" encoding="UTF-8" standalone="no"?>
<!DOCTYPE svg PUBLIC "-//W3C//DTD SVG 1.1//EN"
 "http://www.w3.org/Graphics/SVG/1.1/DTD/svg11.dtd">
<!-- Generated by graphviz version 2.40.1 (20161225.0304)
 -->
<!-- Title: %3 Pages: 1 -->
<svg width="134pt" height="116pt"
 viewBox="0.00 0.00 134.00 116.00" xmlns="http://www.w3.org/2000/svg" xmlns:xlink="http://www.w3.org/1999/xlink">
<g id="graph0" class="graph" transform="scale(1 1) rotate(0) translate(4 112)">
<title>%3</title>
<polygon fill="#ffffff" stroke="transparent" points="-4,4 -4,-112 130,-112 130,4 -4,4"/>
<!-- 139638726551648 -->
<g id="node1" class="node">
<title>139638726551648</title>
<ellipse fill="none" stroke="#000000" cx="63" cy="-90" rx="27" ry="18"/>
<text text-anchor="middle" x="63" y="-86.3" font-family="Times,serif" font-size="14.00" fill="#000000">fib</text>
</g>
<!-- 139638726550584 -->
<g id="node2" class="node">
<title>139638726550584</title>
<polygon fill="none" stroke="#000000" points="54,-36 0,-36 0,0 54,0 54,-36"/>
<text text-anchor="middle" x="27" y="-14.3" font-family="Times,serif" font-size="14.00" fill="#000000">stream</text>
</g>
<!-- 139638726551648&#45;&gt;139638726550584 -->
<g id="edge1" class="edge">
<title>139638726551648&#45;&gt;139638726550584</title>
<path fill="none" stroke="#000000" d="M49.5101,-74.3771C44.2925,-65.9398 38.6601,-55.276 34.1698,-45.4994"/>
<polygon fill="#000000" stroke="#000000" points="37.3009,-43.9219 30.1179,-36.1338 30.8764,-46.7014 37.3009,-43.9219"/>
</g>
<!-- 139638726551816 -->
<g id="node3" class="node">
<title>139638726551816</title>
<polygon fill="none" stroke="#000000" points="126,-36 72,-36 72,0 126,0 126,-36"/>
<text text-anchor="middle" x="99" y="-14.3" font-family="Times,serif" font-size="14.00" fill="#000000">stream</text>
</g>
<!-- 139638726551648&#45;&gt;139638726551816 -->
<g id="edge3" class="edge">
<title>139638726551648&#45;&gt;139638726551816</title>
<path fill="none" stroke="#000000" d="M66.1319,-71.8314C69.368,-63.7925 73.9746,-54.1666 78.7828,-45.2918"/>
<polygon fill="#000000" stroke="#000000" points="81.9292,-46.8385 83.8174,-36.4133 75.8401,-43.3856 81.9292,-46.8385"/>
</g>
<!-- 139638726550584&#45;&gt;139638726551648 -->
<g id="edge2" class="edge">
<title>139638726550584&#45;&gt;139638726551648</title>
<path fill="none" stroke="#000000" d="M42.1826,-36.4133C46.8886,-44.3141 51.7905,-53.7132 55.7918,-62.417"/>
<polygon fill="#000000" stroke="#000000" points="52.6828,-64.0454 59.8681,-71.8314 59.1065,-61.2639 52.6828,-64.0454"/>
</g>
<!-- 139638726551816&#45;&gt;139638726551648 -->
<g id="edge4" class="edge">
<title>139638726551816&#45;&gt;139638726551648</title>
<path fill="none" stroke="#000000" d="M95.8821,-36.1338C92.2892,-45.0651 87.0004,-55.9618 81.6218,-65.6118"/>
<polygon fill="#000000" stroke="#000000" points="78.5221,-63.9789 76.4899,-74.3771 84.5629,-67.5158 78.5221,-63.9789"/>
</g>
</g>
</svg>
