<?xml version="1.0" encoding="UTF-8" standalone="no"?>
<!DOCTYPE svg PUBLIC "-//W3C//DTD SVG 1.1//EN"
 "http://www.w3.org/Graphics/SVG/1.1/DTD/svg11.dtd">
<!-- Generated by graphviz version 2.40.1 (20161225.0304)
 -->
<!-- Title: %3 Pages: 1 -->
<svg width="107pt" height="188pt"
 viewBox="0.00 0.00 106.79 188.00" xmlns="http://www.w3.org/2000/svg" xmlns:xlink="http://www.w3.org/1999/xlink">
<g id="graph0" class="graph" transform="scale(1 1) rotate(0) translate(4 184)">
<title>%3</title>
<polygon fill="#ffffff" stroke="transparent" points="-4,4 -4,-184 102.7912,-184 102.7912,4 -4,4"/>
<!-- 4390777464 -->
<g id="node1" class="node">
<title>4390777464</title>
<ellipse fill="none" stroke="#000000" cx="49.3956" cy="-162" rx="33.2948" ry="18"/>
<text text-anchor="middle" x="49.3956" y="-158.3" font-family="Times,serif" font-size="14.00" fill="#000000">loader</text>
</g>
<!-- 4390778808 -->
<g id="node2" class="node">
<title>4390778808</title>
<ellipse fill="none" stroke="#000000" cx="49.3956" cy="-90" rx="49.2915" ry="18"/>
<text text-anchor="middle" x="49.3956" y="-86.3" font-family="Times,serif" font-size="14.00" fill="#000000">Transform</text>
</g>
<!-- 4390777464&#45;&gt;4390778808 -->
<g id="edge1" class="edge">
<title>4390777464&#45;&gt;4390778808</title>
<path fill="none" stroke="#000000" d="M49.3956,-143.8314C49.3956,-136.131 49.3956,-126.9743 49.3956,-118.4166"/>
<polygon fill="#000000" stroke="#000000" points="52.8957,-118.4132 49.3956,-108.4133 45.8957,-118.4133 52.8957,-118.4132"/>
</g>
<!-- 4390780152 -->
<g id="node3" class="node">
<title>4390780152</title>
<ellipse fill="none" stroke="#000000" cx="49.3956" cy="-18" rx="27" ry="18"/>
<text text-anchor="middle" x="49.3956" y="-14.3" font-family="Times,serif" font-size="14.00" fill="#000000">save</text>
</g>
<!-- 4390778808&#45;&gt;4390780152 -->
<g id="edge2" class="edge">
<title>4390778808&#45;&gt;4390780152</title>
<path fill="none" stroke="#000000" d="M49.3956,-71.8314C49.3956,-64.131 49.3956,-54.9743 49.3956,-46.4166"/>
<polygon fill="#000000" stroke="#000000" points="52.8957,-46.4132 49.3956,-36.4133 45.8957,-46.4133 52.8957,-46.4132"/>
</g>
</g>
</svg>
